<?xml version="1.0" encoding="UTF-8"?>
<!-- Created with Inkscape (http://www.inkscape.org/) -->
<svg width="173.97mm" height="66.889mm" version="1.1" viewBox="0 0 173.97 66.889" xmlns="http://www.w3.org/2000/svg" xmlns:cc="http://creativecommons.org/ns#" xmlns:dc="http://purl.org/dc/elements/1.1/" xmlns:rdf="http://www.w3.org/1999/02/22-rdf-syntax-ns#">
 <metadata>
  <rdf:RDF>
   <cc:Work rdf:about="">
    <dc:format>image/svg+xml</dc:format>
    <dc:type rdf:resource="http://purl.org/dc/dcmitype/StillImage"/>
    <dc:title/>
   </cc:Work>
  </rdf:RDF>
 </metadata>
 <g transform="translate(-20.501 -96.075)">
  <g fill="#f5efed" stroke-width=".26458" aria-label="TESjs">
   <path d="m21.771 96.148h34.996l-1.27 10.089h-12.418l-5.1506 41.839h-10.583l5.1506-41.839h-11.994z"/>
   <path d="m66.64 96.148h35.419l-1.1289 9.525h-24.836l-1.4111 11.571h21.943l-1.1994 9.7367h-21.943l-1.4111 11.289h25.823l-1.1994 9.8072h-36.407z"/>
   <path d="m140.3 109.62q-2.7517-1.8344-5.715-3.0339-2.8928-1.27-5.5739-1.4111-3.3161-0.14111-5.3622 1.0583-2.0461 1.1994-2.3989 3.8806-0.21166 1.8344 0.98778 3.3867 1.27 1.4817 3.3867 2.7517 2.1872 1.27 4.5861 2.3283 2.8928 1.27 5.5033 3.175t4.0922 5.0094q1.4817 3.0339 0.84667 7.9728-0.49389 3.9511-2.9633 7.1967-2.4694 3.2456-6.7028 5.08-4.1628 1.8344-9.9483 1.4817-4.445-0.28222-8.89-1.905t-8.1844-4.7272l5.5033-7.6906q2.4694 2.1872 5.715 3.6689 3.3161 1.4111 6.0678 1.6228 1.8344 0.0706 3.7394-0.28222 1.905-0.42334 3.3161-1.6228t1.6933-3.4572q0.28222-2.3283-1.7639-4.1628-2.0461-1.905-4.9389-3.2456-2.2578-1.0583-4.6567-2.3989-2.3989-1.3406-4.445-3.175-1.9756-1.8344-3.0339-4.5156t-0.56445-6.35q0.56445-4.5156 2.9633-7.6906 2.3989-3.2456 6.2794-4.8683 3.8806-1.6933 8.7489-1.6228 4.1628 0.21167 7.1261 1.1289 3.0339 0.84667 5.2917 2.1167 2.2578 1.27 4.1628 2.7517z"/>
   <path d="m142.9 156.83q2.2578-1.5522 3.7394-3.81 1.4817-2.2578 1.8344-5.5033l3.7394-30.268h9.8778l-3.81 30.833q-0.635 5.08-3.175 8.8194-2.4694 3.7394-7.2672 6.0678zm9.8778-50.447q0-2.2578 1.5522-3.81 1.5522-1.5522 4.0922-1.5522 1.7639 0 3.5278 1.0583 1.7639 0.98778 1.7639 3.5278 0 2.1872-1.5522 3.81-1.5522 1.5522-4.0922 1.5522-1.7639 0-3.5278-0.98778-1.7639-1.0583-1.7639-3.5983z"/>
   <path d="m179.3 148.71q-1.27 0-3.5983-0.42334-2.3283-0.35277-4.9389-1.6228-2.54-1.27-4.5156-3.8806l4.7272-5.1506q1.905 2.1167 3.4572 3.0339 1.5522 0.91723 2.7517 1.1289 1.27 0.14111 2.0461 0.14111 2.1872 0 2.8222-0.91722t0.635-1.6933q0-1.6228-1.905-2.3283-1.8344-0.77612-4.0922-1.6228-3.6689-1.4111-5.2917-3.7394-1.5522-2.3283-1.5522-5.08 0-1.4111 0.49389-3.175 0.56444-1.8344 1.8344-3.5278 1.3406-1.6933 3.6689-2.8222 2.3989-1.1289 6.1383-1.1289 3.175 0 6.4206 0.77611 3.2456 0.77611 6.0678 3.2456l-4.445 5.5739q-3.0339-3.0339-6.4911-3.0339-1.9756 0-2.8222 0.84667-0.77611 0.84667-0.77611 1.905 0 1.1289 1.0583 1.8344 1.0583 0.70556 2.54 1.1994 1.5522 0.49389 3.0339 1.1289 3.175 1.3406 4.8683 3.5278 1.6933 2.1872 1.27 5.6444-0.28222 2.7517-1.905 5.08-1.6228 2.3283-4.5156 3.7394-2.8222 1.3406-6.985 1.3406z"/>
  </g>
 </g>
</svg>
